<svg xmlns="http://www.w3.org/2000/svg" viewBox="0 0 250 176" version="1.1">
	<path d="M 68 27.135 C 68 27.760, 69.125 29.313, 70.500 30.588 L 73 32.905 73 88 L 73 143.095 70.500 145.412 C 66.101 149.489, 67.104 150, 79.500 150 C 91.450 150, 94.262 148.807, 88.500 146.182 L 86 145.043 86 118.521 L 86 92 122 92 L 158 92 158 117.977 L 158 143.954 155.500 145.592 C 150.236 149.041, 152.194 150, 164.500 150 C 176.726 150, 178.038 149.391, 173.500 145.821 L 171 143.855 171 88 L 171 32.145 173.500 30.179 C 178.038 26.609, 176.726 26, 164.500 26 C 152.274 26, 150.962 26.609, 155.500 30.179 L 158 32.145 158 56.073 L 158 80 122 80 L 86 80 86 55.479 L 86 30.957 88.500 29.818 C 94.262 27.193, 91.450 26, 79.500 26 C 71.586 26, 68 26.354, 68 27.135 M 87 62 C 87 62.550, 87.675 63, 88.500 63 C 89.633 63, 90 64.222, 90 68 C 90 70.960, 90.447 73, 91.097 73 C 91.792 73, 92.066 71.171, 91.847 67.999 C 91.603 64.481, 91.870 62.999, 92.750 62.999 C 93.583 63, 94 64.667, 94 68 C 94 70.750, 94.450 73, 95 73 C 95.550 73, 96 71.875, 96 70.500 C 96 69.125, 96.441 68, 96.981 68 C 97.520 68, 98.244 69.125, 98.589 70.500 C 99.596 74.509, 100.558 73.392, 100.528 68.250 C 100.502 63.820, 100.315 63.479, 97.750 63.184 C 96.237 63.010, 95 62.447, 95 61.934 C 95 61.420, 93.200 61, 91 61 C 88.800 61, 87 61.450, 87 62 M 103.983 65.544 C 102.138 70.398, 101.757 73, 102.892 73 C 103.501 73, 104 72.325, 104 71.500 C 104 70.675, 104.675 70, 105.500 70 C 106.325 70, 107 70.675, 107 71.500 C 107 72.325, 107.502 73, 108.117 73 C 108.798 73, 108.983 72.123, 108.593 70.750 C 108.240 69.513, 107.681 67.263, 107.351 65.750 C 106.599 62.311, 105.244 62.228, 103.983 65.544 M 110 68 C 110 71.006, 110.444 73, 111.113 73 C 111.780 73, 112.052 71.805, 111.790 70.024 C 111.302 66.695, 113.392 67.509, 114.529 71.090 C 115.667 74.676, 117 73.008, 117 68 C 117 64.994, 116.556 63, 115.887 63 C 115.209 63, 114.952 64.220, 115.231 66.119 L 115.689 69.239 113.867 66.869 C 112.864 65.566, 112.034 64.162, 112.022 63.750 C 112.010 63.337, 111.550 63, 111 63 C 110.450 63, 110 65.250, 110 68 M 119.105 64.373 C 117.537 66.263, 118.720 68.819, 121.335 69.192 C 124.445 69.635, 123.416 71.539, 120.196 71.299 C 117.660 71.109, 117.612 71.181, 119.388 72.510 C 120.772 73.545, 121.789 73.648, 123.199 72.894 C 125.845 71.477, 125.201 67.600, 122.250 67.180 C 119.157 66.741, 119.404 65, 122.559 65 C 124.010 65, 124.851 64.567, 124.500 64 C 123.606 62.553, 120.434 62.773, 119.105 64.373 M 126 67.934 C 126 70.720, 126.450 73, 127 73 C 127.550 73, 128 72.152, 128 71.117 C 128 70.050, 128.902 68.997, 130.079 68.690 C 133.321 67.842, 132.295 63.591, 128.750 63.184 C 126.070 62.875, 126 62.997, 126 67.934 M 134.035 64.934 C 132.401 67.987, 132.817 70.759, 135.155 72.396 C 138.281 74.585, 141 72.850, 141 68.665 C 141 63.322, 136.258 60.782, 134.035 64.934 M 142.500 67.955 C 142.500 70.730, 142.838 73, 143.250 73 C 143.662 73, 144 71.875, 144 70.500 C 144 69.125, 144.441 68, 144.981 68 C 145.520 68, 146.244 69.125, 146.589 70.500 C 147.600 74.528, 148.599 73.381, 148.547 68.250 C 148.502 63.717, 148.363 63.487, 145.500 63.205 C 142.524 62.913, 142.500 62.951, 142.500 67.955 M 150 64 C 150 64.550, 150.450 65, 151 65 C 151.550 65, 152 66.800, 152 69 C 152 71.200, 152.450 73, 153 73 C 153.550 73, 154 71.362, 154 69.360 C 154 67.067, 154.647 65.229, 155.750 64.392 C 157.305 63.212, 157.082 63.060, 153.750 63.032 C 151.688 63.014, 150 63.450, 150 64 M 96 66 C 96 66.550, 96.648 67, 97.441 67 C 98.234 67, 99.160 66.550, 99.500 66 C 99.840 65.450, 99.191 65, 98.059 65 C 96.927 65, 96 65.450, 96 66 M 128 66 C 128 66.550, 128.675 67, 129.500 67 C 130.325 67, 131 66.550, 131 66 C 131 65.450, 130.325 65, 129.500 65 C 128.675 65, 128 65.450, 128 66 M 135 67.871 C 135 71.414, 136.483 72.674, 138.592 70.924 C 140.780 69.108, 139.952 65.564, 137.250 65.180 C 135.344 64.910, 135 65.321, 135 67.871 M 144 66 C 144 66.550, 144.648 67, 145.441 67 C 146.234 67, 147.160 66.550, 147.500 66 C 147.840 65.450, 147.191 65, 146.059 65 C 144.927 65, 144 65.450, 144 66 M 113 96.836 L 108.500 97.500 108.217 109.983 C 108.062 116.848, 107.612 122.789, 107.217 123.185 C 106.823 123.582, 106.649 118.302, 106.832 111.453 C 107.014 104.604, 106.918 99, 106.618 99 C 106.319 99, 102.457 101.546, 98.037 104.657 C 91.373 109.347, 90 110.774, 90 113.010 C 90 114.493, 89.711 118.473, 89.358 121.853 C 88.804 127.148, 88.943 128, 90.358 128 C 91.390 128, 92.006 128.836, 92.015 130.250 C 92.036 133.342, 93.063 134.693, 96.335 135.937 C 100.603 137.560, 101 137.310, 101 133 C 101 129.400, 101.250 129, 103.500 129 C 105.357 129, 106 128.471, 106 126.941 C 106 125.809, 106.383 125.119, 106.852 125.408 C 107.320 125.698, 107.500 129.212, 107.251 133.217 L 106.798 140.500 111.366 142.961 C 113.879 144.315, 116.122 146.115, 116.351 146.961 C 116.679 148.172, 116.793 148.127, 116.884 146.750 C 117.048 144.278, 119 144.562, 119 147.058 C 119 149.053, 119.461 149.110, 134.068 148.919 C 150.142 148.708, 151.373 148.346, 152.596 143.473 C 152.926 142.160, 152.962 140.504, 152.677 139.793 C 152.391 139.082, 152.122 139.738, 152.079 141.250 C 152.036 142.762, 151.628 144, 151.173 144 C 150.718 144, 150.545 142.650, 150.787 141 C 151.029 139.350, 151.626 138, 152.113 138 C 152.601 138, 153 137.162, 153 136.139 C 153 134.648, 152.452 134.381, 150.250 134.800 C 147.781 135.269, 147.640 135.153, 148.872 133.661 C 149.627 132.748, 150.865 132, 151.622 132 C 153.798 132, 153.234 130.383, 150.413 128.535 C 148.991 127.603, 148.082 126.585, 148.394 126.272 C 148.706 125.960, 148.107 124.084, 147.062 122.102 C 146.017 120.121, 144.636 115.575, 143.993 112 C 142.639 104.470, 140.119 99.831, 136.483 98.174 C 133.339 96.742, 119.131 95.932, 113 96.836 M 118.284 114.083 C 118.987 119.323, 117.759 118.861, 131.527 119.065 L 143.500 119.242 143.180 115.871 C 142.688 110.692, 140.977 110, 128.677 110 L 117.737 110 118.284 114.083 M 115 115 C 115 117.200, 115.450 119, 116 119 C 116.550 119, 117 117.200, 117 115 C 117 112.800, 116.550 111, 116 111 C 115.450 111, 115 112.800, 115 115 M 147 119 C 147 120.100, 147.450 121, 148 121 C 148.550 121, 149 120.100, 149 119 C 149 117.900, 148.550 117, 148 117 C 147.450 117, 147 117.900, 147 119 M 129.096 128.250 C 129.149 129.488, 129.713 132.750, 130.349 135.500 L 131.507 140.500 137.902 140.802 C 145.704 141.170, 145.889 140.999, 146.666 132.679 L 147.289 126 138.145 126 C 129.300 126, 129.003 126.074, 129.096 128.250 M 90.158 132 C 90.158 133.375, 90.385 133.938, 90.662 133.250 C 90.940 132.563, 90.940 131.438, 90.662 130.750 C 90.385 130.063, 90.158 130.625, 90.158 132 M 102.199 135 C 102.199 139.169, 102.393 139.895, 103 138 C 103.745 135.673, 103.808 135.651, 103.900 137.691 C 104.124 142.610, 105.999 140.905, 105.970 135.809 C 105.944 131.279, 105.768 130.793, 104.772 132.500 C 103.641 134.436, 103.581 134.420, 102.902 132 C 102.414 130.264, 102.199 131.181, 102.199 135 M 120.560 130.904 C 119.812 132.114, 121.974 133.637, 125.290 134.235 C 127.025 134.548, 127.944 134.332, 127.721 133.664 C 127.220 132.161, 121.213 129.846, 120.560 130.904 M 116.825 134.674 C 117.251 136.767, 117.503 137.019, 117.794 135.644 C 118.011 134.623, 117.751 133.351, 117.218 132.818 C 116.592 132.192, 116.452 132.849, 116.825 134.674 M 122.787 141 C 123.029 142.650, 123.548 144, 123.940 144 C 124.333 144, 124.455 142.650, 124.213 141 C 123.971 139.350, 123.452 138, 123.060 138 C 122.667 138, 122.545 139.350, 122.787 141" stroke="none" fill="#102a43" fill-rule="evenodd"/>
</svg>