<svg xmlns="http://www.w3.org/2000/svg" width="500" height="352" viewBox="0 0 500 352" version="1.1">
	<path d="M 136.685 52.648 C 134.737 54.596, 136.176 57.971, 139.831 60.025 C 146.292 63.657, 146 58.100, 146 177.274 C 146 296.300, 146.353 289.759, 139.742 293.132 C 136.508 294.782, 135.928 295.544, 136.189 297.802 L 136.500 300.500 159 300.500 L 181.500 300.500 181.811 297.807 C 182.062 295.631, 181.497 294.791, 178.860 293.428 C 172.067 289.915, 172.529 293.853, 172.208 236.822 L 171.916 185 243.958 185 L 316 185 315.978 236.250 C 315.953 293.192, 316.350 289.848, 309.189 293.449 C 306.496 294.804, 305.936 295.617, 306.189 297.807 L 306.500 300.500 329.177 300.769 L 351.853 301.037 352.566 298.794 C 353.124 297.033, 352.675 296.114, 350.478 294.525 C 348.938 293.411, 346.513 291.526, 345.089 290.337 L 342.500 288.173 342.500 176.500 L 342.500 64.827 345.089 62.663 C 346.513 61.474, 348.938 59.589, 350.478 58.475 C 352.675 56.886, 353.124 55.967, 352.566 54.206 L 351.853 51.963 329.177 52.231 L 306.500 52.500 306.184 55.250 C 305.932 57.437, 306.399 58.201, 308.472 58.989 C 309.905 59.534, 312.184 61.175, 313.538 62.636 L 316 65.292 316 112.646 L 316 160 243.955 160 L 171.909 160 172.205 112.178 C 172.530 59.573, 172.086 63.075, 178.860 59.572 C 181.497 58.209, 182.062 57.369, 181.811 55.193 L 181.500 52.500 159.435 52.231 C 147.300 52.084, 137.062 52.271, 136.685 52.648 M 174.346 123.542 C 173.555 125.601, 174.840 127, 177.523 127 C 179.879 127, 179.933 127.199, 180.214 136.750 C 180.445 144.623, 180.789 146.500, 182 146.500 C 183.231 146.500, 183.500 144.750, 183.500 136.749 L 183.500 126.997 186.214 126.999 L 188.928 127 189.214 136.750 C 189.445 144.623, 189.789 146.500, 191 146.500 C 192.080 146.500, 192.585 145.170, 192.805 141.750 C 192.988 138.897, 193.587 137.003, 194.305 137.008 C 195.519 137.016, 198 141.427, 198 143.577 C 198 145.614, 200.935 147.465, 202.184 146.216 C 202.983 145.417, 202.834 144.170, 201.638 141.650 C 200.045 138.293, 200.277 135, 202.107 135 C 202.598 135, 203 133.720, 203 132.155 C 203 128.062, 200.210 126, 194.671 126 C 191.186 126, 190 125.619, 190 124.500 C 190 123.675, 189.662 122.958, 189.250 122.906 C 182.426 122.050, 174.793 122.376, 174.346 123.542 M 208.908 130.450 C 208.273 132.971, 207.359 135.278, 206.877 135.576 C 206.395 135.874, 206 136.998, 206 138.073 C 206 139.148, 205.479 140.861, 204.842 141.881 C 203.579 143.904, 204.291 147, 206.021 147 C 206.617 147, 207.575 145.650, 208.150 144 C 208.881 141.902, 209.852 141, 211.379 141 C 212.886 141, 213.912 141.929, 214.694 144 C 215.317 145.650, 216.329 147, 216.945 147 C 218.675 147, 219.378 144.104, 218.236 141.683 C 217.669 140.482, 216.302 136.575, 215.197 133 C 212.677 124.846, 210.538 123.979, 208.908 130.450 M 220.513 127.250 C 219.324 130.753, 220.540 146.500, 222 146.500 C 223.184 146.500, 223.480 145.182, 223.403 140.250 C 223.350 136.813, 223.441 134, 223.605 134 C 224.397 134, 230 143.044, 230 144.323 C 230 145.911, 232.655 147.331, 234.033 146.480 C 235.665 145.471, 234.684 126.500, 233 126.500 C 231.834 126.500, 231.507 127.803, 231.530 132.342 L 231.559 138.185 229.282 135.342 C 228.030 133.779, 226.308 131.037, 225.456 129.250 C 223.896 125.979, 221.301 124.929, 220.513 127.250 M 239.913 127.282 C 236.960 129.549, 235.712 132.929, 237.132 134.814 C 239.310 137.706, 241.300 139, 243.569 139 C 246.488 139, 248.364 141.236, 246.776 142.824 C 245.344 144.256, 241 144.389, 241 143 C 241 141.775, 237.326 141.664, 236.583 142.866 C 234.206 146.712, 246.106 148.823, 249.127 145.091 C 252.863 140.478, 249.455 134, 243.292 134 C 241.499 134, 240.949 133.537, 241.214 132.250 C 241.500 130.863, 242.447 130.556, 245.787 130.768 C 248.964 130.970, 250 130.672, 250 129.553 C 250 126.431, 243.057 124.868, 239.913 127.282 M 252.667 126.667 C 251.560 127.773, 251.903 145.822, 253.044 146.527 C 254.991 147.731, 256.947 144.986, 256.333 141.913 C 255.833 139.415, 256.058 139, 257.910 139 C 263.972 139, 267.743 130.803, 263.250 127.392 C 261.437 126.015, 253.839 125.495, 252.667 126.667 M 270.635 127.476 C 265.415 131.430, 264.594 138.891, 268.821 143.954 C 274.784 151.097, 283 147.046, 283 136.962 C 283 128.154, 276.412 123.100, 270.635 127.476 M 285.778 126.750 C 284.594 129.357, 285.685 146.500, 287.034 146.500 C 288.073 146.500, 288.589 145.118, 288.805 141.750 C 289.207 135.482, 293.873 136.275, 293.968 142.628 C 294.005 145.095, 296.433 147.469, 297.956 146.527 C 299.223 145.744, 299.356 142, 298.117 142 C 296.586 142, 296.202 137.077, 297.640 135.884 C 299.585 134.270, 299.319 129.598, 297.171 127.655 C 295.311 125.971, 286.451 125.267, 285.778 126.750 M 300 127.548 C 300 128.450, 300.883 129.418, 301.961 129.700 C 303.675 130.148, 303.959 131.240, 304.211 138.357 C 304.473 145.737, 304.687 146.500, 306.500 146.500 C 308.310 146.500, 308.527 145.738, 308.787 138.471 C 309.038 131.442, 309.335 130.322, 311.173 129.471 C 315.096 127.657, 313.531 126.501, 306.750 126.204 C 301.041 125.954, 300 126.162, 300 127.548 M 193.568 129.765 C 191.999 131.335, 193.138 134, 195.378 134 C 198.645 134, 200.687 131.509, 198.276 130.466 C 195.676 129.341, 194.210 129.123, 193.568 129.765 M 257.153 130.247 C 255.062 132.338, 255.880 134, 259 134 C 260.968 134, 262 133.496, 262 132.535 C 262 130.410, 258.597 128.803, 257.153 130.247 M 289.592 129.742 C 287.794 131.539, 289.152 134, 291.941 134 C 295.102 134, 296.812 132.412, 295.289 130.889 C 294.109 129.709, 290.376 128.957, 289.592 129.742 M 272.215 130.846 C 270.031 132.232, 269.537 138.645, 271.395 141.481 C 274.553 146.300, 280 143.354, 280 136.826 C 280 131.676, 275.887 128.516, 272.215 130.846 M 210.769 134.956 C 210.078 137.417, 210.491 138.842, 211.581 137.753 C 211.900 137.433, 212.004 136.121, 211.810 134.836 L 211.459 132.500 210.769 134.956 M 230 193.615 C 226.975 193.830, 222.609 194.507, 220.297 195.120 L 216.093 196.234 215.797 222.035 C 215.540 244.360, 215.040 250.746, 213.693 248.917 C 213.524 248.687, 213.686 237.250, 214.052 223.500 C 214.419 209.750, 214.556 198.312, 214.358 198.082 C 213.868 197.514, 209.443 199.938, 207.267 201.966 C 206.295 202.872, 201.225 206.476, 196 209.976 C 190.775 213.475, 186.350 216.712, 186.167 217.169 C 185.983 217.626, 185.266 218, 184.572 218 C 181.006 218, 180.231 221.239, 179.506 239.174 L 178.791 256.847 181.646 257.174 C 184.300 257.477, 184.537 257.867, 185.027 262.741 C 185.645 268.890, 186.598 269.949, 194.206 272.947 C 201.880 275.972, 202.416 275.650, 202.112 268.199 C 201.719 258.586, 202.193 257.824, 208.075 258.604 L 213 259.258 213 255.188 C 213 251.066, 214.349 248.861, 215.321 251.394 C 215.613 252.154, 215.489 259.014, 215.045 266.638 C 214.602 274.262, 214.410 280.795, 214.620 281.155 C 215.081 281.948, 225.423 287.974, 229.250 289.678 C 231.381 290.628, 232 291.590, 232 293.952 C 232 298.329, 234.975 298.133, 235.070 293.750 C 235.109 291.962, 235.505 289.600, 235.951 288.500 C 236.735 286.565, 237.333 288.450, 238.332 296 C 238.502 297.293, 242.736 297.519, 268.970 297.637 L 299.409 297.773 301.955 295.026 C 305.811 290.863, 308.387 280.976, 306 279.500 C 305.389 279.122, 305 280.656, 305 283.441 C 305 287.259, 304.690 288, 303.094 288 C 301.811 288, 301.302 287.428, 301.538 286.250 C 301.732 285.288, 302.160 282.813, 302.490 280.750 C 302.946 277.900, 303.560 277, 305.045 277 C 306.659 277, 307 276.302, 307 273 C 307 268.593, 306.970 268.575, 302.034 269.990 C 299.985 270.578, 298.214 270.614, 297.680 270.080 C 296.477 268.877, 301.368 264.660, 304.813 263.931 L 307.500 263.361 302.410 258.431 C 298.380 254.528, 297.279 252.770, 297.128 250 C 297.023 248.075, 296.501 246.350, 295.968 246.167 C 294.221 245.565, 294.956 243.245, 297.069 242.692 C 300.004 241.925, 299.496 235.500, 296.500 235.500 C 294.988 235.500, 294.378 236.333, 294 238.913 C 293.233 244.144, 291.527 240.967, 290.019 231.500 C 286.152 207.224, 281.093 198.269, 269.515 195.202 C 264.544 193.886, 240.052 192.902, 230 193.615 M 237.331 221.579 C 236.656 223.339, 237.598 235.541, 238.525 237.041 C 238.854 237.573, 245.432 238.039, 253.309 238.087 C 261.114 238.135, 271.550 238.511, 276.500 238.923 C 287.996 239.881, 288.284 239.645, 286.585 230.697 C 285.875 226.955, 284.838 223.438, 284.281 222.881 C 281.427 220.027, 238.385 218.833, 237.331 221.579 M 230.667 222.667 C 229.953 223.380, 229.716 238, 230.418 238 C 230.648 238, 231.548 238.273, 232.418 238.607 C 233.785 239.132, 234 238.045, 234 230.607 C 234 222.322, 233.116 220.217, 230.667 222.667 M 258.488 253.019 C 257.788 254.152, 261.474 275.001, 263.105 279.131 C 264.345 282.271, 267.431 282.973, 280.059 282.989 C 291.353 283.004, 291.604 282.768, 293.552 270.365 C 295.911 255.345, 295.570 253.661, 290 252.824 C 282.732 251.733, 259.193 251.878, 258.488 253.019 M 180.667 260.667 C 179.608 261.725, 179.894 268, 181 268 C 181.550 268, 182 266.200, 182 264 C 182 259.913, 181.834 259.499, 180.667 260.667 M 204.452 261.266 C 203.540 263.642, 204.443 279.998, 205.500 280.256 C 206.050 280.390, 206.640 278.813, 206.810 276.750 C 207.191 272.155, 208.994 271.746, 209.015 276.250 C 209.024 278.038, 209.474 280.175, 210.015 281 C 211.907 283.882, 213.021 279.851, 212.755 271.081 C 212.475 261.849, 210.680 259.015, 209.508 265.953 C 208.666 270.935, 207 270.302, 207 265 C 207 261.049, 205.422 258.737, 204.452 261.266 M 242.250 261.737 C 238.534 263.014, 242.664 267.435, 248.500 268.427 C 250.700 268.801, 253.287 269.338, 254.250 269.621 C 255.479 269.982, 256 269.574, 256 268.253 C 256 265.638, 245.449 260.638, 242.250 261.737 M 231.946 266.750 C 231.393 268.262, 230.743 270.063, 230.502 270.750 C 230.260 271.438, 230.385 272.788, 230.778 273.750 C 231.300 275.026, 231.630 274.475, 231.997 271.717 C 232.608 267.122, 234.376 266.362, 234.827 270.500 C 235.229 274.187, 237 276.362, 237 273.168 C 237 270.728, 234.451 264, 233.526 264 C 233.210 264, 232.498 265.238, 231.946 266.750 M 245.658 280.750 C 246.367 286.192, 247.701 289.303, 248.984 288.510 C 249.793 288.010, 249.569 283.959, 248.416 278.250 C 247.452 273.474, 244.999 275.697, 245.658 280.750 M 230.252 281.500 C 230.263 283.700, 230.468 284.482, 230.707 283.238 C 230.946 281.994, 230.937 280.194, 230.687 279.238 C 230.437 278.282, 230.241 279.300, 230.252 281.500" stroke="none" fill="#102a43" fill-rule="evenodd"/>
</svg>